name ./resultDataOpenSim/trcMotMarkerGrf/sub06/grf-02-07.mot
datacolumns 19
datarows 30
range 0.98800000 1.10400000
endheader

                time	     ground_force_vx	     ground_force_vy	     ground_force_vz	     ground_force_px	     ground_force_py	     ground_force_pz	   l_ground_force_vx	   l_ground_force_vy	   l_ground_force_vz	   l_ground_force_px	   l_ground_force_py	   l_ground_force_pz	     ground_torque_x	     ground_torque_y	     ground_torque_z	   l_ground_torque_x	   l_ground_torque_y	   l_ground_torque_z	
          0.98800000	          0.00000000	          0.00000000	          0.00000000	          0.00000000	          0.00000000	          0.00000000	        119.89505442	        719.87609596	         32.81657241	          0.04839291	         -0.02500000	         -0.01538033	          0.00000000	          0.00000000	          0.00000000	          0.00000000	         -1.90733823	          0.00000000	
          0.99200000	          0.00000000	          0.00000000	          0.00000000	          0.00000000	          0.00000000	          0.00000000	        127.24137565	        730.14405636	         32.92097635	          0.04892557	         -0.02500000	         -0.01515335	          0.00000000	          0.00000000	          0.00000000	          0.00000000	         -1.97650283	          0.00000000	
          0.99600000	          0.00000000	          0.00000000	          0.00000000	          0.00000000	          0.00000000	          0.00000000	        134.65763656	        738.95062600	         32.71649837	          0.04938261	         -0.02500000	         -0.01496283	          0.00000000	          0.00000000	          0.00000000	          0.00000000	         -2.05674761	          0.00000000	
          1.00000000	          0.00000000	          0.00000000	          0.00000000	          0.00000000	          0.00000000	          0.00000000	        142.08908560	        746.14330609	         32.22068048	          0.04979217	         -0.02500000	         -0.01480479	          0.00000000	          0.00000000	          0.00000000	          0.00000000	         -2.14553234	          0.00000000	
          1.00400000	          0.00000000	          0.00000000	          0.00000000	          0.00000000	          0.00000000	          0.00000000	        149.49323430	        751.56577949	         31.48729534	          0.05024250	         -0.02500000	         -0.01463515	          0.00000000	          0.00000000	          0.00000000	          0.00000000	         -2.23792315	          0.00000000	
          1.00800000	          0.00000000	          0.00000000	          0.00000000	          0.00000000	          0.00000000	          0.00000000	        156.81862571	        755.11315539	         30.59835651	          0.05079378	         -0.02500000	         -0.01441607	          0.00000000	          0.00000000	          0.00000000	          0.00000000	         -2.32685084	          0.00000000	
          1.01200000	          0.00000000	          0.00000000	          0.00000000	          0.00000000	          0.00000000	          0.00000000	        164.01549041	        756.72082347	         29.62769856	          0.05146457	         -0.02500000	         -0.01413613	          0.00000000	          0.00000000	          0.00000000	          0.00000000	         -2.40417915	          0.00000000	
          1.01600000	          0.00000000	          0.00000000	          0.00000000	          0.00000000	          0.00000000	          0.00000000	        171.05607215	        756.30207178	         28.62512965	          0.05225221	         -0.02500000	         -0.01379048	          0.00000000	          0.00000000	          0.00000000	          0.00000000	         -2.46221967	          0.00000000	
          1.02000000	          0.00000000	          0.00000000	          0.00000000	          0.00000000	          0.00000000	          0.00000000	        177.91437771	        753.71889442	         27.62176862	          0.05313315	         -0.02500000	         -0.01338112	          0.00000000	          0.00000000	          0.00000000	          0.00000000	         -2.49514711	          0.00000000	
          1.02400000	          0.00000000	          0.00000000	          0.00000000	          0.00000000	          0.00000000	          0.00000000	        184.52435344	        748.82058132	         26.62444632	          0.05407776	         -0.02500000	         -0.01292213	          0.00000000	          0.00000000	          0.00000000	          0.00000000	         -2.49983192	          0.00000000	
          1.02800000	          0.00000000	          0.00000000	          0.00000000	          0.00000000	          0.00000000	          0.00000000	        190.77893138	        741.49449231	         25.60937843	          0.05504620	         -0.02500000	         -0.01244205	          0.00000000	          0.00000000	          0.00000000	          0.00000000	         -2.47588653	          0.00000000	
          1.03200000	          0.00000000	          0.00000000	          0.00000000	          0.00000000	          0.00000000	          0.00000000	        196.56642162	        731.67327831	         24.53979181	          0.05599378	         -0.02500000	         -0.01197406	          0.00000000	          0.00000000	          0.00000000	          0.00000000	         -2.42508736	          0.00000000	
          1.03600000	          0.00000000	          0.00000000	          0.00000000	          0.00000000	          0.00000000	          0.00000000	        201.78745861	        719.28920485	         23.39067260	          0.05688962	         -0.02500000	         -0.01154457	          0.00000000	          0.00000000	          0.00000000	          0.00000000	         -2.35058527	          0.00000000	
          1.04000000	          0.00000000	          0.00000000	          0.00000000	          0.00000000	          0.00000000	          0.00000000	        206.33925795	        704.21270939	         22.15168055	          0.05772418	         -0.02500000	         -0.01117065	          0.00000000	          0.00000000	          0.00000000	          0.00000000	         -2.25629548	          0.00000000	
          1.04400000	          0.00000000	          0.00000000	          0.00000000	          0.00000000	          0.00000000	          0.00000000	        210.09184738	        686.22653222	         20.80936430	          0.05850649	         -0.02500000	         -0.01085763	          0.00000000	          0.00000000	          0.00000000	          0.00000000	         -2.14660080	          0.00000000	
          1.04800000	          0.00000000	          0.00000000	          0.00000000	          0.00000000	          0.00000000	          0.00000000	        212.86302558	        665.04873689	         19.33294012	          0.05925017	         -0.02500000	         -0.01060348	          0.00000000	          0.00000000	          0.00000000	          0.00000000	         -2.02621202	          0.00000000	
          1.05200000	          0.00000000	          0.00000000	          0.00000000	          0.00000000	          0.00000000	          0.00000000	        214.40051205	        640.37595713	         17.68542999	          0.05998360	         -0.02500000	         -0.01039777	          0.00000000	          0.00000000	          0.00000000	          0.00000000	         -1.89991764	          0.00000000	
          1.05600000	          0.00000000	          0.00000000	          0.00000000	          0.00000000	          0.00000000	          0.00000000	        214.38533403	        611.90958903	         15.85248303	          0.06075805	         -0.02500000	         -0.01022054	          0.00000000	          0.00000000	          0.00000000	          0.00000000	         -1.77209784	          0.00000000	
          1.06000000	          0.00000000	          0.00000000	          0.00000000	          0.00000000	          0.00000000	          0.00000000	        212.43982309	        579.37788240	         13.85813914	          0.06163056	         -0.02500000	         -0.01006049	          0.00000000	          0.00000000	          0.00000000	          0.00000000	         -1.64612532	          0.00000000	
          1.06400000	          0.00000000	          0.00000000	          0.00000000	          0.00000000	          0.00000000	          0.00000000	        208.12947087	        542.61772626	         11.75916406	          0.06264452	         -0.02500000	         -0.00992482	          0.00000000	          0.00000000	          0.00000000	          0.00000000	         -1.52387417	          0.00000000	
          1.06800000	         -0.88783193	         40.58997208	          3.75429438	          0.71082202	          0.00000000	          0.08987072	        200.99522218	        501.71368956	          9.63514616	          0.06384086	         -0.02500000	         -0.00981562	          0.00000000	          0.31182772	          0.00000000	          0.00000000	         -1.40546944	          0.00000000	
          1.07200000	        -11.20963173	        190.31546543	         11.86060017	          0.71673101	          0.00000000	          0.08795467	        190.64869850	        457.10710822	          7.57779495	          0.06528675	         -0.02500000	         -0.00971100	          0.00000000	          0.11379028	          0.00000000	          0.00000000	         -1.28932372	          0.00000000	
          1.07600000	        -23.39182668	        323.43799577	         19.70043634	          0.72212546	          0.00000000	          0.08640925	        176.92854786	        409.63069325	          5.68070567	          0.06705650	         -0.02500000	         -0.00957628	          0.00000000	         -0.10356496	          0.00000000	          0.00000000	         -1.17251055	          0.00000000	
          1.08000000	        -39.14609587	        427.87219292	         26.57373150	          0.72718390	          0.00000000	          0.08564001	        160.08983766	        360.49272058	          4.04011887	          0.06919862	         -0.02500000	         -0.00938396	          0.00000000	         -0.34037558	          0.00000000	          0.00000000	         -1.05153435	          0.00000000	
          1.08400000	        -59.38739522	        502.34223162	         31.42534089	          0.73161441	          0.00000000	          0.08612330	        140.91154906	        311.23827898	          2.74162518	          0.07174551	         -0.02500000	         -0.00912299	          0.00000000	         -0.57708949	          0.00000000	          0.00000000	         -0.92350916	          0.00000000	
          1.08800000	        -83.72664055	        556.22226745	         33.33538240	          0.73592425	          0.00000000	          0.08758383	        120.57937265	        263.65380541	          1.80945991	          0.07468812	         -0.02500000	         -0.00878152	          0.00000000	         -0.77670889	          0.00000000	          0.00000000	         -0.78759107	          0.00000000	
          1.09200000	       -111.09351272	        602.98917836	         31.99315844	          0.74140958	          0.00000000	          0.08912303	        100.39665128	        219.47930486	          1.17119642	          0.07791030	         -0.02500000	         -0.00835104	          0.00000000	         -0.89424758	          0.00000000	          0.00000000	         -0.64615814	          0.00000000	
          1.09600000	       -140.41341114	        652.26335628	         27.66791930	          0.74869111	          0.00000000	          0.09024117	         81.52287361	        179.93456922	          0.70410742	          0.08113941	         -0.02500000	         -0.00785879	          0.00000000	         -0.88920232	          0.00000000	          0.00000000	         -0.50497271	          0.00000000	
          1.10000000	       -170.15321223	        706.62836482	         20.98967032	          0.75665251	          0.00000000	          0.09118377	         64.81412205	        145.41855750	          0.33991382	          0.08405371	         -0.02500000	         -0.00735549	          0.00000000	         -0.73762418	          0.00000000	          0.00000000	         -0.37196479	          0.00000000	
          1.10400000	       -197.95745644	        763.85025419	         12.93282322	          0.76352340	          0.00000000	          0.09213263	         50.73028627	        115.65233628	          0.11793784	          0.08645763	         -0.02500000	         -0.00689767	          0.00000000	         -0.44234536	          0.00000000	          0.00000000	         -0.25524355	          0.00000000	
